@startuml

package Sample  {
class Controller {
 +Label : nameInstrum
 +Label : namePotreblenie
 +Label : nameTimeWork
 +AnalysisElectriciry : analysisElectriciry
+ goToAnalys()
}

class AnalysisElectriciry {
+ Float : result
+ getValTimeWork()
+ getNameInstrum()
+ getValPotrebl()
+ setNameInstrum()
+ setValPotrebl()
+ setValTimeWork()
+ analysFunction()
+ getResult()
}

class DB_Instrumentation {
 +String : nameInstrum
 +Float : valPotreblenie
 +dataTime2 : timeWork
 +DB_Instrumentation : instrumentForDb
}

}
DB_Instrumentation --* Controller
Controller *-- AnalysisElectriciry


@enduml